<?xml version="1.0" encoding="iso-8859-1"?>
<!-- Generator: Adobe Illustrator 18.0.0, SVG Export Plug-In . SVG Version: 6.00 Build 0)  -->
<!DOCTYPE svg PUBLIC "-//W3C//DTD SVG 1.1//EN" "http://www.w3.org/Graphics/SVG/1.1/DTD/svg11.dtd">
<svg version="1.1" id="Capa_1" xmlns="http://www.w3.org/2000/svg" xmlns:xlink="http://www.w3.org/1999/xlink" x="0px" y="0px"
	 viewBox="0 0 331.516 331.516" style="enable-background:new 0 0 331.516 331.516;" xml:space="preserve">
<g>
	<path d="M330.224,182.088c-2.565-4.257-8.096-5.629-12.354-3.065l-21.476,12.938l-65.391-38.163
		c-2.561-1.494-5.692-1.631-8.374-0.368l-56.268,26.522h-38.505l-6.843-22.839c-7.227-24.117-32.727-37.857-56.843-30.633
		c-7.366,2.207-13.432,7.151-17.081,13.92c-3.648,6.77-4.441,14.555-2.234,21.92l5.596,18.678
		c-21.34,4.557-37.396,23.551-37.396,46.231c0,10.804,3.61,21.047,10.24,29.375c-4.47,2.106-9.301,3.198-14.296,3.198
		c-4.971,0-9,4.029-9,9s4.029,9,9,9c9.948,0,19.434-2.787,27.798-8.119c8.367,5.332,17.855,8.119,27.803,8.119
		c9.948,0,19.434-2.787,27.798-8.119c8.367,5.332,17.855,8.119,27.803,8.119c9.945,0,19.432-2.787,27.797-8.116
		c8.366,5.329,17.852,8.116,27.797,8.116c9.948,0,19.434-2.787,27.798-8.119c8.367,5.331,17.855,8.119,27.803,8.119
		c9.948,0,19.434-2.787,27.798-8.119c8.367,5.332,17.855,8.119,27.803,8.119c4.971,0,9-4.029,9-9s-4.029-9-9-9
		c-4.99,0-9.816-1.089-14.283-3.19c6.583-8.253,10.228-18.492,10.228-29.382c0-10.213-3.266-19.672-8.793-27.41l17.779,10.376
		c1.402,0.818,2.97,1.227,4.537,1.227c1.608,0,3.216-0.431,4.644-1.291l26.047-15.691
		C331.417,191.877,332.789,186.346,330.224,182.088z M120.203,259.802c-5.875,0-11.521-1.513-16.623-4.408
		c-1.879-1.066-3.687-2.314-5.401-3.75c-0.311-0.26-0.639-0.489-0.974-0.701h45.999c-0.338,0.213-0.668,0.443-0.981,0.705
		c-1.989,1.665-4.098,3.085-6.304,4.251C131.057,258.468,125.729,259.802,120.203,259.802z M103.771,162.279l5.295,17.672h-6.595
		l-15.651-27.464c-2.461-4.319-7.958-5.825-12.275-3.363c-4.318,2.461-5.824,7.957-3.363,12.275l10.572,18.552H68.928l-6.831-22.798
		c-0.827-2.76-0.53-5.678,0.837-8.214s3.64-4.39,6.401-5.216C83.945,139.342,99.392,147.67,103.771,162.279z M92.01,197.952
		l8.672,15.218c1.601,2.809,4.586,4.544,7.819,4.544H148c4.971,0,9-4.029,9-9s-4.029-9-9-9h-34.268l-1.004-1.762h122.938
		c16.144,0,29.278,13.134,29.278,29.278c0,2.054-0.22,4.069-0.626,6.026c-0.741-0.197-1.515-0.313-2.318-0.313H31.61
		c-0.366-1.862-0.555-3.773-0.555-5.713c0-16.144,13.134-29.278,29.278-29.278H92.01z M46.489,254.503
		c-1.348-0.855-2.655-1.806-3.912-2.859c-0.304-0.255-0.625-0.479-0.953-0.687c-0.002-0.004-0.003-0.009-0.005-0.013h45.973
		c-0.336,0.212-0.664,0.441-0.975,0.702c-1.533,1.285-3.14,2.42-4.806,3.409c-5.253,3.118-11.109,4.748-17.21,4.748
		C58.149,259.802,51.971,257.98,46.489,254.503z M153.778,251.648c-0.313-0.262-0.644-0.492-0.981-0.705h45.991
		c-0.335,0.212-0.664,0.441-0.975,0.702c-2.498,2.094-5.191,3.794-8.023,5.095c-4.386,2.014-9.11,3.062-13.993,3.062
		c-5.235,0-10.288-1.204-14.938-3.514C158.372,255.053,155.998,253.507,153.778,251.648z M218.404,257.187
		c-3.203-1.347-6.236-3.203-9.029-5.543c-0.311-0.26-0.639-0.489-0.974-0.701h44.491c-0.942,0.793-1.683,1.741-2.214,2.782
		c-2.302,1.591-4.737,2.878-7.273,3.853c-3.814,1.465-7.853,2.225-12.006,2.225C226.885,259.802,222.505,258.912,218.404,257.187z
		 M235.666,179.952H208.58l17.441-8.221l14.514,8.471C238.934,180.037,237.31,179.952,235.666,179.952z"/>
	<path d="M60.863,118.281c3.06,0,6.169-0.439,9.248-1.361c8.258-2.474,15.058-8.016,19.147-15.605
		c4.089-7.589,4.979-16.316,2.505-24.574s-8.016-15.058-15.605-19.148c-7.589-4.09-16.316-4.979-24.574-2.505
		c-8.258,2.474-15.059,8.016-19.148,15.605c-4.089,7.589-4.979,16.316-2.504,24.574C34.117,109.236,46.976,118.281,60.863,118.281z
		 M60.866,71.723c2.332,0,4.642,0.578,6.752,1.715c3.356,1.809,5.807,4.816,6.901,8.469l0,0c2.259,7.54-2.037,15.511-9.576,17.771
		c-7.542,2.257-15.511-2.037-17.771-9.577c-1.094-3.652-0.701-7.512,1.108-10.868s4.816-5.808,8.469-6.902
		C58.106,71.924,59.49,71.723,60.866,71.723z"/>
</g>
<g>
</g>
<g>
</g>
<g>
</g>
<g>
</g>
<g>
</g>
<g>
</g>
<g>
</g>
<g>
</g>
<g>
</g>
<g>
</g>
<g>
</g>
<g>
</g>
<g>
</g>
<g>
</g>
<g>
</g>
</svg>
