<?xml version="1.0" encoding="UTF-8" standalone="no"?>
<!-- Creator: CorelDRAW -->

<svg
   xmlns:dc="http://purl.org/dc/elements/1.1/"
   xmlns:cc="http://creativecommons.org/ns#"
   xmlns:rdf="http://www.w3.org/1999/02/22-rdf-syntax-ns#"
   xmlns:svg="http://www.w3.org/2000/svg"
   xmlns="http://www.w3.org/2000/svg"
   xmlns:xlink="http://www.w3.org/1999/xlink"
   xmlns:sodipodi="http://sodipodi.sourceforge.net/DTD/sodipodi-0.dtd"
   xmlns:inkscape="http://www.inkscape.org/namespaces/inkscape"
   xml:space="preserve"
   width="1000px"
   height="1000px"
   shape-rendering="geometricPrecision"
   text-rendering="geometricPrecision"
   image-rendering="optimizeQuality"
   fill-rule="evenodd"
   clip-rule="evenodd"
   viewBox="0 0 1000 1000"
   id="svg2888"
   sodipodi:version="0.32"
   inkscape:version="0.48.2 r9819"
   sodipodi:docname="Life_Preserver.svg"
   inkscape:output_extension="org.inkscape.output.svg.inkscape"
   version="1.1"><metadata
   id="metadata2946"><rdf:RDF><cc:Work
       rdf:about=""><dc:format>image/svg+xml</dc:format><dc:type
         rdf:resource="http://purl.org/dc/dcmitype/StillImage" /></cc:Work></rdf:RDF></metadata><sodipodi:namedview
   inkscape:window-height="840"
   inkscape:window-width="1400"
   inkscape:pageshadow="2"
   inkscape:pageopacity="0.0"
   guidetolerance="10.0"
   gridtolerance="10.0"
   objecttolerance="10.0"
   borderopacity="1.0"
   bordercolor="#666666"
   pagecolor="#ffffff"
   id="base"
   inkscape:zoom="0.53315851"
   inkscape:cx="738.09306"
   inkscape:cy="520.29974"
   inkscape:window-x="-2"
   inkscape:window-y="-2"
   inkscape:current-layer="svg2888"
   showgrid="false"
   inkscape:window-maximized="0" />
 <defs
   id="defs2890"><linearGradient
   id="linearGradient10797"><stop
     style="stop-color:#ffffff;stop-opacity:1;"
     offset="0"
     id="stop10799" /><stop
     style="stop-color:#ffffff;stop-opacity:0;"
     offset="1"
     id="stop10801" /></linearGradient>
   <radialGradient
   id="id0"
   gradientUnits="userSpaceOnUse"
   cx="444.589"
   cy="502.321"
   r="1063.56"
   fx="444.589"
   fy="502.321">
    <stop
   offset="0"
   stop-color="#DA251D"
   id="stop2893" />
    <stop
   offset="0.278431"
   stop-color="#DA251D"
   id="stop2895" />
    <stop
   offset="0.568627"
   stop-color="#E7785F"
   id="stop2897" />
    <stop
   offset="1"
   stop-color="#DA251D"
   id="stop2899" />
    <stop
   offset="1"
   stop-color="#DA251D"
   id="stop2901" />
   </radialGradient>
   <linearGradient
   id="id1"
   gradientUnits="userSpaceOnUse"
   x1="618.768"
   y1="157.482"
   x2="741.732"
   y2="375.85">
    <stop
   offset="0"
   stop-color="white"
   id="stop2904" />
    <stop
   offset="0.541176"
   stop-color="#DEDEDD"
   id="stop2906" />
    <stop
   offset="1"
   stop-color="#DEDEDD"
   id="stop2908" />
   </linearGradient>
   <linearGradient
   id="id2"
   gradientUnits="userSpaceOnUse"
   x1="271.338"
   y1="846.924"
   x2="146.524"
   y2="629.026">
    <stop
   offset="0"
   stop-color="white"
   id="stop2911" />
    <stop
   offset="0.541176"
   stop-color="#DEDEDD"
   id="stop2913" />
    <stop
   offset="1"
   stop-color="#DEDEDD"
   id="stop2915" />
   </linearGradient>
   <linearGradient
   id="id3"
   gradientUnits="userSpaceOnUse"
   x1="789.194"
   y1="675.572"
   x2="571.296"
   y2="800.388">
    <stop
   offset="0"
   stop-color="white"
   id="stop2918" />
    <stop
   offset="0.541176"
   stop-color="#DEDEDD"
   id="stop2920" />
    <stop
   offset="1"
   stop-color="#DEDEDD"
   id="stop2922" />
   </linearGradient>
   <linearGradient
   id="id4"
   gradientUnits="userSpaceOnUse"
   x1="99.9851"
   y1="329.07"
   x2="317.886"
   y2="204.252">
    <stop
   offset="0"
   stop-color="white"
   id="stop2925" />
    <stop
   offset="0.541176"
   stop-color="#DEDEDD"
   id="stop2927" />
    <stop
   offset="1"
   stop-color="#DEDEDD"
   id="stop2929" />
   </linearGradient>
 
  <metadata
   id="CorelCorpID_0Corel-Layer" />
  
  
  
  
  
  
 <linearGradient
   inkscape:collect="always"
   xlink:href="#id4"
   id="linearGradient2950"
   gradientUnits="userSpaceOnUse"
   x1="99.9851"
   y1="329.07"
   x2="317.886"
   y2="204.252" /><linearGradient
   inkscape:collect="always"
   xlink:href="#id3"
   id="linearGradient2953"
   gradientUnits="userSpaceOnUse"
   x1="789.194"
   y1="675.572"
   x2="571.296"
   y2="800.388" /><linearGradient
   inkscape:collect="always"
   xlink:href="#id2"
   id="linearGradient2956"
   gradientUnits="userSpaceOnUse"
   x1="271.338"
   y1="846.924"
   x2="146.524"
   y2="629.026" /><linearGradient
   inkscape:collect="always"
   xlink:href="#id1"
   id="linearGradient2959"
   gradientUnits="userSpaceOnUse"
   x1="618.768"
   y1="157.482"
   x2="741.732"
   y2="375.85" /><radialGradient
   inkscape:collect="always"
   xlink:href="#id0"
   id="radialGradient10815"
   gradientUnits="userSpaceOnUse"
   cx="444.589"
   cy="502.321"
   fx="444.589"
   fy="502.321"
   r="1063.56" /><radialGradient
   inkscape:collect="always"
   xlink:href="#id0"
   id="radialGradient3026"
   gradientUnits="userSpaceOnUse"
   cx="444.589"
   cy="502.321"
   fx="444.589"
   fy="502.321"
   r="1063.56" /><linearGradient
   inkscape:collect="always"
   xlink:href="#id1"
   id="linearGradient3028"
   gradientUnits="userSpaceOnUse"
   x1="618.768"
   y1="157.482"
   x2="741.732"
   y2="375.85" /><linearGradient
   inkscape:collect="always"
   xlink:href="#id2"
   id="linearGradient3030"
   gradientUnits="userSpaceOnUse"
   x1="271.338"
   y1="846.924"
   x2="146.524"
   y2="629.026" /><linearGradient
   inkscape:collect="always"
   xlink:href="#id3"
   id="linearGradient3032"
   gradientUnits="userSpaceOnUse"
   x1="789.194"
   y1="675.572"
   x2="571.296"
   y2="800.388" /><linearGradient
   inkscape:collect="always"
   xlink:href="#id4"
   id="linearGradient3034"
   gradientUnits="userSpaceOnUse"
   x1="99.9851"
   y1="329.07"
   x2="317.886"
   y2="204.252" /><radialGradient
   inkscape:collect="always"
   xlink:href="#id0"
   id="radialGradient3042"
   gradientUnits="userSpaceOnUse"
   cx="444.589"
   cy="502.321"
   fx="444.589"
   fy="502.321"
   r="1063.56"
   gradientTransform="translate(55.421875,-2.328125)" /></defs>
<path
   inkscape:connector-curvature="0"
   style="fill:url(#radialGradient3042);stroke:#1f1a17;stroke-width:15;stroke-linecap:round;stroke-linejoin:round;stroke-miterlimit:4;stroke-dasharray:none"
   d="m 500.01562,73.640625 c -235.432,0 -426.374995,190.911735 -426.374995,426.343745 0,235.43001 190.944005,426.37503 426.374995,426.375 235.43201,0 426.34377,-190.944 426.34375,-426.375 0,-235.431 -190.91174,-426.343745 -426.34375,-426.343745 z m -0.28125,177.343745 c 138.36607,0 250.65625,112.29021 250.65625,250.65625 0,138.36605 -112.2902,250.6875 -250.65625,250.6875 -138.36603,2e-5 -250.6875,-112.32145 -250.6875,-250.6875 0,-138.36604 112.32146,-250.65625 250.6875,-250.65625 z"
   id="path2935" /><g
   id="g10864"
   transform="translate(55.421875,-2.328125)"><path
     inkscape:connector-curvature="0"
     id="path2937"
     d="m 583.826,319.535 43.5485,43.5485 c 5.8004,5.79922 15.2835,5.80394 21.0874,0 l 128.208,-128.212 c 5.80394,-5.79922 5.79922,-15.2906 0.005,-21.0862 l -43.5508,-43.5449 c -5.79331,-5.79449 -15.2917,-5.79449 -21.0862,0 l -128.21,128.21 c -5.79567,5.79449 -5.8004,15.287 -10e-4,21.0862 l 0,-0.001 -4.4e-4,-4.2e-4 z"
     style="fill:url(#linearGradient3028);stroke:#1f1a17;stroke-width:15;stroke-linecap:round;stroke-linejoin:bevel;stroke-miterlimit:4;stroke-opacity:1;stroke-dasharray:none;marker-start:none" /><path
     inkscape:connector-curvature="0"
     d="m 305.358,685.108 -43.5508,-43.552 c -5.80158,-5.79567 -15.2858,-5.8004 -21.0886,10e-4 l -128.208,128.212 c -5.80276,5.79685 -5.79804,15.2894 -0.005,21.0862 l 43.552,43.5449 c 5.79331,5.79449 15.2917,5.79449 21.0839,0.001 l 128.211,-128.21 c 5.79449,-5.79685 5.8004,-15.2894 0.005,-21.0851 l 0,10e-4 5e-4,4.6e-4 z"
     id="path2939"
     style="fill:url(#linearGradient3030);stroke:#1f1a17;stroke-width:15;stroke-linecap:round;stroke-linejoin:bevel;stroke-miterlimit:4;stroke-dasharray:none" /><path
     inkscape:connector-curvature="0"
     d="m 627.375,641.556 -43.5496,43.5485 c -5.79685,5.79922 -5.8004,15.2835 0.001,21.0874 l 128.212,128.208 c 5.79922,5.80276 15.2906,5.79804 21.0851,0.004 l 43.5485,-43.5496 c 5.79213,-5.79331 5.79331,-15.2906 0,-21.0862 l -128.211,-128.21 c -5.79449,-5.79567 -15.287,-5.8004 -21.0862,-10e-4 l 0,0 2e-5,-4.6e-4 z"
     id="path2941"
     style="fill:url(#linearGradient3032);stroke:#1f1a17;stroke-width:15;stroke-linecap:round;stroke-linejoin:bevel;stroke-miterlimit:4;stroke-dasharray:none" /><path
     inkscape:connector-curvature="0"
     d="m 261.805,363.083 43.5496,-43.5485 c 5.79685,-5.79922 5.80158,-15.2847 -0.001,-21.0862 l -128.212,-128.209 c -5.79685,-5.80276 -15.2894,-5.79922 -21.0862,-0.006 l -43.5449,43.552 c -5.79449,5.79449 -5.79567,15.2917 0,21.0862 l 128.21,128.211 c 5.79567,5.79449 15.287,5.80158 21.0862,0 l -10e-4,0 -3.4e-4,4.1e-4 z"
     id="path2943"
     style="fill:url(#linearGradient3034);stroke:#1f1a17;stroke-width:15;stroke-linecap:round;stroke-linejoin:bevel;stroke-miterlimit:4;stroke-dasharray:none" /></g>
</svg>