<svg xmlns="http://www.w3.org/2000/svg" xmlns:xlink="http://www.w3.org/1999/xlink" version="1.1" style="" xml:space="preserve" width="51.055946667600324" height="68.27273066788041"><rect id="backgroundrect" width="100%" height="100%" x="0" y="0" fill="none" stroke="none" class="selected" style=""/>
    <style type="text/css">
	.st1{fill:none;}
	.st2{fill:#ff5800;}
</style>

    <g class="currentLayer" style=""><title>Layer 1</title><g id="svg_1" class="">
	<g id="XMLID_2523_">
		<rect id="XMLID_2746_" x="0" y="0" class="st1" width="70.5999984741211" height="87.69999694824219"/>
        <g id="XMLID_2529_">
			<path id="XMLID_2743_" class="st2" d="M35.55734720230103,52.9748309135437 h1.6 c1.9,0 4.4,-0.1 4.4,-2.6 c0,-2.1 -2.1,-2.5 -4.4,-2.5 h-1.6 V52.9748309135437 zM29.55734720230103,43.6748309135437 h10.7 c4,0 7.3,1.8 7.3,5.7 c0,3 -1.4,5 -4.3,5.7 v0.1 c1.9,0.5 2.1,2.2 3.2,5 l2.2,6.1 h-6.3 l-1.3,-4.1 c-1.2,-3.9 -2,-4.8 -4.2,-4.8 h-1.3 v8.9 h-6 V43.6748309135437 z"/>
            <path id="XMLID_2740_" class="st2" d="M35.55734720230103,52.9748309135437 h1.6 c1.9,0 4.4,-0.1 4.4,-2.6 c0,-2.1 -2.1,-2.5 -4.4,-2.5 h-1.6 V52.9748309135437 zM29.55734720230103,43.6748309135437 h10.7 c4,0 7.3,1.8 7.3,5.7 c0,3 -1.4,5 -4.3,5.7 v0.1 c1.9,0.5 2.1,2.2 3.2,5 l2.2,6.1 h-6.3 l-1.3,-4.1 c-1.2,-3.9 -2,-4.8 -4.2,-4.8 h-1.3 v8.9 h-6 V43.6748309135437 z"/>
            <path id="XMLID_2739_" class="st2" d="M13.057347202301031,44.874830913543704 H1.7573472023010268 c1.4,10.9 10,19.5 20.9,20.9 v-11.3 C17.957347202301023,53.274830913543695 14.157347202301025,49.57483091354371 13.057347202301031,44.874830913543704 "/>
            <path id="XMLID_2737_" class="st2" d="M25.957347202301023,6.874830913543704 c-0.1,0.1 -0.3000000000000003,0.1 -0.4,0 L22.85734720230103,4.174830913543701 c-0.1,-0.1 -0.1,-0.3000000000000003 0,-0.4 l2.7,-2.7 c0.1,-0.1 0.3000000000000003,-0.1 0.4,0 l2.7,2.7 c0.1,0.1 0.1,0.3000000000000003 0,0.4 L25.957347202301023,6.874830913543704 z"/>
            <path id="XMLID_2736_" class="st2" d="M36.05734720230103,18.9748309135437 c-0.2,0.1 -0.3000000000000003,0.1 -0.6000000000000006,0.1 h0 c-0.6000000000000006,0 -1.1,-0.3000000000000003 -1.4,-0.4 c-0.3000000000000003,-0.2 -0.7000000000000006,-0.4 -1.2,-0.4 c-0.4,0 -0.9,0.2 -1.2,0.4 c-0.5,0.3000000000000003 -0.7000000000000006,0.4 -1.2,0.4 c-0.6000000000000006,0 -1.1,-0.3000000000000003 -1.4,-0.4 c-0.3000000000000003,-0.2 -0.7000000000000006,-0.4 -1.2,-0.4 c-0.4,0 -0.9,0.2 -1.2,0.4 c-0.5,0.3000000000000003 -0.7000000000000006,0.4 -1.2,0.4 c-0.5,0 -0.6000000000000006,-0.1 -1.2,-0.4 c-0.3000000000000003,-0.2 -0.7000000000000006,-0.4 -1.2,-0.4 c-0.4,0 -0.8,0.2 -1.2,0.4 c-0.3000000000000003,0.2 -0.8,0.5 -1.4,0.4 c-0.5,0 -0.6000000000000006,-0.1 -1.2,-0.4 c-0.3000000000000003,-0.2 -0.7000000000000006,-0.4 -1.2,-0.4 c-0.4,0 -0.8,0.2 -1.2,0.4 c-0.3000000000000003,0.2 -0.8,0.5 -1.4,0.4 h0 c-0.2,0 -0.4,0 -0.6000000000000006,-0.1 l-3.9,-5.6 c-1,-1.4 -0.7000000000000006,-3.4 0.8,-4.4 c1.4,-1 3.4,-0.7000000000000006 4.4,0.8 l3.2,4.6 c0.9,-0.2 1.7000000000000002,-0.4 2.6,-0.5 v-2.5 c0,-1.8 1.4,-3.2 3.2,-3.2 c1.8,0 3.2,1.4 3.2,3.2 v2.5 c0.9,0.1 1.7000000000000002,0.3000000000000003 2.6,0.5 l3.2,-4.6 c1,-1.4 3,-1.8 4.4,-0.8 c1.4,1 1.8,3 0.8,4.4 L36.05734720230103,18.9748309135437 z"/>
            <path id="XMLID_2735_" class="st2" d="M20.957347202301023,21.074830913543707 c-0.5,0 -0.6000000000000006,-0.1 -1.2,-0.4 c-0.3000000000000003,-0.2 -0.7000000000000006,-0.4 -1.2,-0.4 c-0.4,0 -0.8,0.2 -1.2,0.4 c-0.3000000000000003,0.2 -0.8,0.5 -1.4,0.4 h0 c-0.5,0 -0.6000000000000006,-0.1 -1.2,-0.4 c-0.2,-0.1 -0.4,-0.2 -0.7000000000000006,-0.3000000000000003 c-6.7,3.6 -11.5,10.3 -12.5,18.2 h11.3 c1.2,-4.7 4.9,-8.4 9.6,-9.6 v-8.5 c-0.1,0.1 -0.2,0.1 -0.4,0.2 C21.957347202301023,20.874830913543704 21.457347202301023,21.1748309135437 20.957347202301023,21.074830913543707 "/>
            <path id="XMLID_2534_" class="st2" d="M37.35734720230103,20.374830913543704 c-0.3000000000000003,0.1 -0.5,0.2 -0.7000000000000006,0.3000000000000003 c-0.5,0.3000000000000003 -0.7000000000000006,0.4 -1.2,0.4 h0 c-0.6000000000000006,0 -1,-0.2 -1.4,-0.4 c-0.3000000000000003,-0.2 -0.7000000000000006,-0.4 -1.2,-0.4 c-0.4,0 -0.9,0.2 -1.2,0.4 c-0.5,0.3000000000000003 -0.7000000000000006,0.4 -1.2,0.4 c-0.6000000000000006,0 -1,-0.2 -1.4,-0.4 c-0.1,-0.1 -0.2,-0.1 -0.3000000000000003,-0.2 v8.5 c4.7,1.2 8.4,4.9 9.6,9.6 h11.3 C48.85734720230103,30.6748309135437 44.05734720230103,23.9748309135437 37.35734720230103,20.374830913543704 "/>
		</g>
	</g>
</g></g></svg>