<?xml version="1.0" standalone="no"?>
<!DOCTYPE svg PUBLIC "-//W3C//DTD SVG 20010904//EN"
 "http://www.w3.org/TR/2001/REC-SVG-20010904/DTD/svg10.dtd">
<svg version="1.0" xmlns="http://www.w3.org/2000/svg"
 width="1088.000000pt" height="1088.000000pt" viewBox="0 0 1088.000000 1088.000000"
 preserveAspectRatio="xMidYMid meet">
<metadata>
Created by potrace 1.11, written by Peter Selinger 2001-2013
</metadata>
<g transform="translate(0.000000,1088.000000) scale(0.100000,-0.100000)"
fill="#000000" stroke="none">
<path d="M5228 10492 c-126 -125 -228 -235 -228 -245 0 -25 441 -465 472 -471
22 -4 57 27 252 223 149 150 226 234 226 248 0 28 -445 473 -474 473 -13 0
-97 -77 -248 -228z"/>
<path d="M5252 9559 c-182 -46 -324 -189 -366 -366 -9 -41 -14 -133 -15 -289
-1 -126 -4 -230 -6 -232 -2 -3 -19 -6 -37 -8 -29 -4 -54 -8 -168 -30 -14 -3
-34 -7 -45 -9 -11 -2 -51 -10 -89 -18 -68 -15 -70 -15 -87 6 -10 12 -18 25
-19 29 0 4 -6 13 -13 20 -6 7 -38 51 -70 98 -32 47 -85 123 -118 170 -32 47
-64 92 -69 100 -260 375 -287 406 -395 459 -66 33 -80 37 -150 48 -73 10 -170
3 -221 -18 -62 -25 -130 -60 -158 -82 -75 -59 -152 -158 -163 -209 -3 -16 -8
-28 -12 -28 -4 0 -7 -8 -8 -17 -1 -10 -6 -40 -11 -66 -14 -70 -8 -155 17 -235
10 -33 63 -134 82 -156 8 -9 107 -150 229 -326 6 -8 57 -82 115 -165 57 -82
119 -172 137 -198 18 -27 38 -54 44 -60 6 -7 16 -23 23 -35 7 -13 19 -31 27
-40 7 -9 19 -25 26 -34 19 -25 133 -39 198 -24 14 3 76 31 137 62 93 46 123
57 170 59 71 3 93 -4 214 -66 53 -26 113 -51 134 -53 20 -3 39 -7 42 -10 3 -3
13 -1 22 4 10 5 23 5 30 0 15 -9 90 14 136 42 26 15 70 38 85 43 3 1 23 10 45
20 39 17 129 24 170 13 48 -12 59 -17 175 -81 49 -27 65 -31 140 -31 70 0 93
4 130 23 25 13 47 26 50 30 3 3 23 14 45 25 120 55 202 55 314 0 145 -71 177
-80 261 -79 56 1 88 7 125 24 28 13 52 27 55 31 8 11 100 52 135 58 78 16 138
5 235 -41 108 -51 201 -81 245 -78 48 2 76 9 91 21 12 11 98 154 133 223 8 15
18 27 23 27 4 0 8 6 8 13 0 6 18 40 40 75 22 34 40 65 40 68 0 3 15 29 33 58
17 28 37 61 44 72 13 20 191 323 208 354 6 10 17 25 24 33 7 9 14 22 15 29 1
7 7 22 14 34 6 11 13 33 16 47 2 15 8 31 11 37 14 23 5 182 -14 243 -70 223
-260 368 -476 362 -101 -3 -141 -12 -225 -52 -89 -43 -172 -121 -245 -233 -27
-41 -53 -79 -57 -85 -16 -20 -94 -131 -123 -175 -17 -25 -36 -51 -42 -58 -7
-7 -13 -17 -13 -21 0 -4 -8 -16 -17 -27 -10 -11 -47 -62 -83 -114 -35 -52 -68
-96 -72 -98 -4 -2 -8 -8 -8 -13 0 -6 -10 -23 -22 -39 -17 -24 -27 -29 -47 -24
-14 3 -38 7 -53 9 -14 2 -31 6 -36 9 -5 3 -27 8 -48 11 -22 4 -48 9 -59 12
-11 3 -29 7 -40 9 -23 3 -93 15 -115 19 -8 2 -20 4 -27 4 -9 1 -12 58 -12 229
0 125 -3 238 -5 251 -26 123 -72 210 -152 287 -54 52 -149 109 -197 118 -14 2
-31 7 -36 10 -26 16 -179 13 -249 -5z"/>
<path d="M4263 7639 c-5 -3 -26 -12 -47 -19 -22 -7 -65 -27 -95 -45 -129 -75
-221 -76 -372 -3 -137 66 -128 66 -217 17 -42 -23 -79 -45 -82 -49 -3 -4 -15
-10 -27 -14 -13 -4 -23 -12 -23 -17 0 -5 -5 -9 -11 -9 -12 0 -133 -80 -137
-92 -2 -4 -8 -8 -14 -8 -11 0 -209 -147 -264 -195 -6 -5 -44 -39 -85 -75 -129
-113 -379 -372 -428 -444 -9 -11 -26 -32 -38 -46 -70 -75 -343 -487 -343 -516
0 -7 -4 -14 -9 -16 -12 -4 -112 -206 -171 -344 -87 -201 -159 -423 -210 -639
-26 -111 -28 -123 -35 -171 -4 -21 -8 -47 -11 -56 -8 -28 -13 -59 -19 -113
l-5 -51 900 0 899 0 21 70 c12 39 24 78 27 86 3 8 7 20 8 25 13 52 123 288
168 360 61 98 83 130 89 133 5 2 8 8 8 13 0 6 4 15 10 22 5 7 40 50 77 97 73
90 214 236 278 285 21 17 52 41 69 56 85 69 218 154 344 218 74 38 241 109
272 116 8 2 29 9 45 15 17 7 41 14 55 16 66 12 60 -55 60 690 0 371 -4 674 -9
674 -4 0 -23 -11 -42 -25 -65 -47 -115 -68 -154 -67 -52 2 -121 14 -129 22 -5
5 -18 10 -27 10 -9 0 -22 7 -29 15 -6 8 -15 14 -18 12 -4 -1 -27 10 -52 25
-25 14 -63 31 -85 37 -44 11 -130 11 -142 0z"/>
<path d="M6508 7629 c-28 -11 -68 -29 -87 -42 -30 -20 -58 -34 -81 -42 -3 -1
-14 -6 -25 -11 -23 -10 -144 -10 -190 0 -16 4 -61 23 -98 41 -38 19 -69 35
-70 35 -1 0 -2 -300 -2 -667 0 -442 3 -671 10 -678 5 -6 33 -16 60 -23 88 -23
217 -73 330 -128 177 -87 274 -149 435 -279 45 -36 255 -249 283 -287 15 -20
33 -43 41 -51 8 -8 12 -17 9 -21 -4 -3 -2 -6 4 -6 11 0 103 -134 103 -150 0
-5 4 -10 8 -10 16 0 184 -352 199 -415 1 -5 13 -44 26 -85 l24 -75 899 0 c893
0 899 0 898 20 -1 11 -5 43 -9 70 -4 28 -8 64 -10 80 -1 17 -4 30 -5 30 -1 0
-3 9 -4 20 -3 26 -19 117 -22 130 -4 18 -34 150 -40 175 -2 14 -16 63 -30 110
-14 46 -27 92 -29 102 -2 9 -8 25 -13 35 -6 10 -10 20 -10 23 -1 10 -14 46
-48 135 -19 50 -34 96 -34 103 0 6 -4 12 -10 12 -5 0 -10 7 -10 15 0 19 -118
265 -139 289 -9 10 -15 20 -13 22 9 12 -211 366 -252 407 -9 9 -16 19 -16 22
0 4 -10 19 -22 34 -13 15 -34 42 -48 61 -14 18 -29 38 -35 44 -5 6 -32 38 -60
71 -61 73 -58 69 -176 191 -187 193 -368 345 -589 495 -98 66 -125 83 -150 95
-8 4 -26 15 -40 24 -43 29 -141 80 -153 80 -7 0 -57 -23 -112 -51 -86 -44
-109 -51 -165 -54 -60 -2 -178 19 -190 34 -8 10 -129 71 -148 74 -9 1 -21 5
-27 9 -20 12 -116 4 -167 -13z"/>
<path d="M6090 3920 c-4 -3 -7 -36 -6 -73 1 -38 -2 -71 -7 -74 -4 -2 -4 -9 0
-16 10 -16 10 -58 1 -63 -5 -3 -5 -11 -1 -17 4 -6 7 -21 7 -32 0 -11 -3 -26
-7 -32 -4 -6 -4 -14 1 -17 6 -4 8 -50 2 -66 -3 -6 0 -84 3 -127 2 -18 -1 -33
-6 -33 -4 0 -5 -5 -2 -11 11 -16 12 -69 3 -75 -5 -3 -5 -10 -1 -17 9 -15 10
-98 0 -104 -4 -2 -4 -10 0 -16 10 -16 10 -48 0 -69 -4 -10 -4 -18 1 -18 9 0 8
-53 -3 -69 -3 -6 -3 -11 2 -11 10 0 9 -152 0 -167 -4 -7 -4 -14 1 -17 9 -5 9
-47 -1 -63 -4 -7 -4 -14 1 -17 9 -5 9 -47 -1 -63 -4 -7 -4 -14 1 -17 9 -5 9
-53 0 -62 -4 -3 -3 -18 1 -32 5 -15 5 -36 1 -47 -4 -11 -5 -24 -2 -29 9 -15 8
-136 -1 -136 -5 0 -5 -5 -2 -11 11 -16 12 -69 2 -69 -4 0 -5 -5 -2 -11 11 -16
12 -69 3 -75 -5 -3 -5 -10 -1 -16 9 -16 10 -138 0 -138 -4 0 -4 -8 0 -17 5
-10 8 -29 6 -43 -2 -26 -3 -67 -3 -132 0 -21 0 -44 0 -50 -1 -7 1 -28 3 -46 2
-18 0 -35 -5 -38 -5 -3 -5 -10 -1 -17 9 -15 10 -98 0 -104 -4 -2 -4 -9 0 -16
10 -16 10 -58 1 -63 -5 -3 -5 -11 -1 -17 4 -6 7 -21 7 -32 0 -11 -3 -26 -7
-32 -4 -6 -4 -14 0 -16 5 -3 7 -27 6 -54 -2 -50 -3 -93 -3 -155 0 -21 0 -44 0
-50 -1 -7 1 -28 3 -46 2 -18 0 -35 -5 -38 -5 -3 -5 -10 -1 -17 9 -15 10 -98 0
-104 -4 -2 -4 -9 0 -16 10 -16 10 -58 1 -63 -5 -3 -5 -10 -1 -17 10 -16 10
-58 1 -63 -5 -3 -5 -10 -1 -16 9 -16 10 -169 0 -175 -4 -2 -4 -10 0 -16 9 -15
9 -49 0 -64 -4 -6 -4 -14 1 -17 9 -5 9 -47 -1 -63 -4 -7 -4 -14 1 -17 9 -6 8
-47 -2 -64 -4 -8 -1 -12 11 -13 24 -1 924 -1 942 0 8 1 11 8 8 21 -3 11 -1 22
3 25 5 3 5 19 0 35 -5 17 -6 30 -2 30 4 0 7 18 7 40 0 22 -3 40 -7 40 -4 0 -3
13 2 30 5 18 5 32 -1 36 -5 3 -7 10 -4 15 8 13 10 107 3 115 -4 3 -3 17 2 30
6 14 6 26 0 29 -6 3 -6 15 0 30 6 15 6 27 0 30 -6 3 -6 15 0 30 6 15 6 27 0
30 -6 3 -6 15 0 30 6 15 6 27 0 30 -6 3 -6 15 0 30 6 15 6 27 0 30 -6 3 -6 15
0 30 6 15 6 27 0 30 -6 3 -6 15 0 30 6 15 6 27 0 30 -6 3 -6 15 0 30 6 15 6
27 0 30 -6 3 -6 15 0 30 6 15 6 27 0 30 -6 3 -6 15 0 30 6 15 6 27 -1 30 -5 4
-6 11 -3 17 9 14 8 134 -1 148 -3 5 -2 10 4 10 6 0 6 11 1 29 -4 15 -4 34 0
42 5 7 5 20 0 29 -5 9 -5 22 0 30 5 8 5 21 0 30 -5 9 -5 22 0 30 5 8 5 21 0
31 -17 30 11 36 155 34 129 -2 159 -5 238 -20 79 -15 188 -95 246 -179 36 -52
94 -165 122 -236 19 -51 98 -269 100 -280 2 -6 0 0 49 -160 23 -74 47 -151 55
-170 7 -19 13 -37 13 -40 1 -3 3 -12 6 -20 17 -52 30 -96 32 -102 1 -5 2 -9 4
-10 1 -2 3 -10 5 -18 1 -8 15 -52 30 -97 19 -59 31 -83 43 -84 21 -1 951 -1
973 0 19 1 22 -12 -49 186 -22 61 -48 133 -57 160 -10 28 -21 59 -25 70 -5 11
-17 46 -29 78 -12 31 -30 81 -40 110 -11 28 -31 86 -46 127 -14 41 -28 82 -32
90 -3 8 -7 20 -9 25 -4 14 -53 146 -61 165 -3 8 -7 17 -8 20 -1 3 -4 12 -8 20
-3 8 -17 49 -32 90 -15 41 -29 82 -32 90 -4 8 -7 17 -8 20 -8 22 -19 50 -31
78 -8 18 -14 37 -14 43 0 6 -23 58 -52 116 -38 78 -66 121 -107 162 -53 53
-149 111 -184 111 -40 0 6 36 54 43 8 2 20 6 27 10 6 5 17 5 22 2 6 -3 10 -2
10 3 0 5 17 14 38 20 66 20 190 100 261 170 173 167 257 400 254 697 -3 201
-62 376 -177 518 -51 65 -161 162 -216 191 -143 77 -280 130 -395 150 -16 3
-41 8 -55 11 -57 11 -150 19 -232 20 -49 0 -88 2 -88 5 0 3 -52 5 -115 5 -63
0 -115 -4 -115 -8 0 -5 -6 -5 -12 0 -17 10 -116 10 -146 1 -13 -5 -21 -5 -19
0 7 10 -217 7 -233 -3 -7 -5 -11 -4 -7 1 6 11 -215 10 -233 -1 -7 -5 -11 -4
-7 1 6 11 -215 10 -233 -1 -7 -5 -11 -4 -7 1 4 8 -50 8 -238 4 -5 -1 -40 1
-78 2 -37 2 -67 -1 -67 -5 0 -5 -5 -5 -12 -1 -13 8 -166 12 -178 4z m1445
-683 c11 -3 43 -8 70 -11 67 -9 187 -50 233 -80 20 -13 51 -39 68 -57 32 -35
80 -109 70 -109 -3 0 -1 -11 4 -25 11 -30 15 -135 6 -193 -13 -89 -71 -174
-155 -227 -50 -31 -140 -64 -191 -70 -19 -2 -48 -7 -65 -10 -47 -10 -116 -13
-320 -15 -104 0 -196 -1 -204 0 -8 0 -11 7 -8 19 2 10 0 26 -5 35 -5 9 -5 16
-1 16 9 0 9 108 0 117 -3 3 -2 15 3 27 4 13 4 29 0 36 -5 8 -5 21 0 29 4 8 4
25 -1 38 -5 13 -4 25 1 28 6 3 6 15 0 30 -6 15 -6 27 0 30 6 3 6 15 0 30 -6
15 -6 27 0 30 6 3 6 15 0 30 -6 15 -6 27 0 30 6 3 6 15 0 30 -6 15 -6 27 0 30
6 3 6 15 0 30 -6 15 -6 27 0 30 6 3 6 15 0 30 -6 15 -6 27 0 30 5 3 6 15 1 26
-4 12 -5 35 -3 51 l5 30 236 -5 c130 -3 245 -8 256 -10z"/>
<path d="M1654 3703 c12 -76 17 -111 21 -138 2 -16 11 -64 20 -105 9 -41 18
-84 19 -96 2 -11 6 -26 10 -32 3 -6 8 -23 11 -39 4 -32 6 -40 24 -103 8 -25
14 -49 16 -55 9 -40 19 -72 26 -80 4 -6 10 -22 12 -35 2 -14 7 -32 10 -40 11
-25 58 -154 60 -165 2 -5 9 -21 17 -35 7 -14 13 -26 12 -27 -2 -4 29 -76 74
-172 24 -51 44 -97 44 -101 0 -5 3 -10 8 -12 4 -1 17 -23 29 -48 34 -67 85
-159 117 -210 66 -104 150 -225 158 -228 4 -2 8 -8 8 -14 0 -6 18 -32 40 -58
22 -26 40 -52 40 -58 0 -6 3 -12 8 -14 6 -2 81 -89 117 -135 17 -23 229 -245
254 -267 13 -12 44 -41 70 -64 25 -24 105 -91 176 -149 72 -57 138 -111 148
-119 9 -8 19 -14 22 -14 2 0 28 -18 57 -40 29 -22 58 -40 65 -40 6 0 13 -4 15
-8 3 -8 105 -74 173 -112 19 -11 52 -29 72 -41 49 -28 237 -122 293 -147 156
-69 477 -184 557 -198 12 -2 35 -9 50 -15 16 -6 29 -10 31 -10 1 1 3 1 5 0 1
0 10 -2 21 -4 10 -2 39 -8 65 -14 25 -6 57 -12 71 -14 14 -2 32 -6 40 -10 13
-5 96 -18 203 -33 34 -5 37 -4 38 18 4 135 0 1768 -4 1775 -6 9 -22 14 -94 29
-13 2 -139 48 -178 64 -63 26 -210 99 -273 137 -41 24 -77 43 -82 43 -4 0 -10
7 -14 15 -3 8 -12 15 -19 15 -8 0 -22 9 -32 20 -10 11 -21 17 -25 15 -5 -3
-10 -2 -12 2 -1 5 -28 28 -58 53 -30 25 -58 49 -62 55 -4 5 -8 7 -8 3 0 -8
-193 184 -235 233 -12 13 -43 53 -70 89 -28 36 -53 67 -57 68 -5 2 -8 7 -8 12
0 4 -20 39 -45 77 -48 73 -143 259 -170 333 -18 51 -66 200 -69 215 -1 6 -6
20 -10 33 l-7 22 -900 0 -899 0 4 -27z"/>
</g>
</svg>
