<?xml version="1.0" encoding="utf-8"?>
<!-- Generator: Adobe Illustrator 19.1.0, SVG Export Plug-In . SVG Version: 6.00 Build 0)  -->
<svg version="1.1" id="Layer_1" xmlns="http://www.w3.org/2000/svg" xmlns:xlink="http://www.w3.org/1999/xlink" x="0px" y="0px"
	 viewBox="0 0 853.8 227.2" style="enable-background:new 0 0 853.8 227.2;" xml:space="preserve">
<style type="text/css">
	.st0{fill:#D52B1E;}
	.st1{fill:#F9E300;}
	.st2{fill:#ff5800;}
	.st3{fill:#009FDA;}
	.st4{fill:#00065B;}
	.st5{fill:#FFFFFF;}
	.st6{fill:#0092D0;}
	.st7{fill:none;}
	.st8{display:none;}
	.st9{display:inline;fill-rule:evenodd;clip-rule:evenodd;fill:#FF0A05;}
	.st10{fill-rule:evenodd;clip-rule:evenodd;fill:#FFFFFF;}
	.st11{fill-rule:evenodd;clip-rule:evenodd;}
	.st12{fill-rule:evenodd;clip-rule:evenodd;fill:#FF0A05;}
	.st13{fill-rule:evenodd;clip-rule:evenodd;fill:#131A1C;}
	.st14{fill-rule:evenodd;clip-rule:evenodd;fill:#F9E300;}
	.st15{fill-rule:evenodd;clip-rule:evenodd;fill:#8F8F8F;}
	.st16{fill:#8F8F8F;}
	.st17{fill-rule:evenodd;clip-rule:evenodd;fill:none;}
	.st18{display:inline;}
	.st19{display:inline;fill-rule:evenodd;clip-rule:evenodd;}
	.st20{fill-rule:evenodd;clip-rule:evenodd;fill:#009FDA;}
</style>
<g id="XMLID_2_">
	<g id="XMLID_8_">
		<path id="XMLID_93_" class="st2" d="M81.5,125.5h3.8c4.7,0,10.6-0.2,10.6-6.3c0-5.1-5.1-6-10.6-6h-3.8V125.5z M67.1,103h25.8
			c9.6,0,17.5,4.3,17.5,13.7c0,7.2-3.4,12-10.4,13.7v0.2c4.7,1.3,5,5.4,7.7,12l5.3,14.8H97.8l-3.1-9.8c-3-9.3-4.8-11.7-10.2-11.7h-3
			v21.4H67.1V103z"/>
		<polygon id="XMLID_70_" class="st2" points="122,103 160.2,103 160.2,113.2 136.4,113.2 136.4,124.4 158.9,124.4 158.9,134.6 
			136.4,134.6 136.4,146.9 161,146.9 161,157.2 122,157.2 		"/>
		<path id="XMLID_67_" class="st2" d="M187.4,146.5h5.6c10.8,0,16.9-5.6,16.9-16.4c0-10.8-6.3-16.4-16.9-16.4h-5.6V146.5z
			 M172.9,103h19.7c18.9,0,32.1,5.9,32.1,26.9c0,20.3-13.6,27.3-32.1,27.3h-19.7V103z"/>
		<path id="XMLID_64_" class="st2" d="M248.3,146.5h5.6c10.8,0,16.9-5.6,16.9-16.4c0-10.8-6.3-16.4-16.9-16.4h-5.6V146.5z
			 M233.8,103h19.7c18.9,0,32.1,5.9,32.1,26.9c0,20.3-13.6,27.3-32.1,27.3h-19.7V103z"/>
		<rect id="XMLID_63_" x="295.6" y="103" class="st2" width="14.4" height="54.2"/>
		<polygon id="XMLID_62_" class="st2" points="322.9,103 341.3,103 359.7,139.8 359.8,139.8 359.6,103 372.8,103 372.8,157.2 
			354.8,157.2 335.9,120.1 335.7,120.1 336.2,157.2 322.9,157.2 		"/>
		<path id="XMLID_59_" class="st2" d="M563,125.5h3.8c4.7,0,10.6-0.2,10.6-6.3c0-5.1-5.1-6-10.6-6H563V125.5z M548.5,103h25.8
			c9.6,0,17.5,4.3,17.5,13.7c0,7.2-3.4,12-10.4,13.7v0.2c4.7,1.3,5,5.4,7.7,12l5.3,14.8h-15.1l-3.1-9.8c-2.9-9.3-4.8-11.7-10.2-11.7
			h-3v21.4h-14.4V103z"/>
		<rect id="XMLID_58_" x="604.5" y="103" class="st2" width="14.5" height="54.2"/>
		<path id="XMLID_57_" class="st2" d="M681.4,155.6c-9.2,2.3-16,2.5-21,2.5c-14.4,0-31.1-7.3-31.1-27.8c0-20.4,14.4-28.3,34.3-28.3
			c3.6,0,11.1,0.4,16.4,2.4l-1.2,11.8c-4.5-2.6-9.8-3.5-13.2-3.5c-11.7,0-21.4,4.9-21.4,17.6c0,10.6,7.5,17.1,18.1,17.1
			c1.9,0,3.8-0.3,5.1-0.9v-10.7h-8.5v-10.3h22.5V155.6z"/>
		<path id="XMLID_54_" class="st2" d="M717.7,114.1h-0.2l-7,21.2h13.6L717.7,114.1z M708.9,103h17.7l20.9,54.2h-15.8l-4-11.6h-20.4
			l-4.3,11.6h-14.7L708.9,103z"/>
		<path id="XMLID_51_" class="st2" d="M769.1,146.5h5.6c10.8,0,16.9-5.6,16.9-16.4c0-10.8-6.3-16.4-16.9-16.4h-5.6V146.5z
			 M754.7,103h19.7c18.9,0,32.1,5.9,32.1,26.9c0,20.3-13.6,27.3-32.1,27.3h-19.7V103z"/>
		<polygon id="XMLID_50_" class="st2" points="814.7,103 852.9,103 852.9,113.2 829.2,113.2 829.2,124.4 851.6,124.4 851.6,134.6 
			829.2,134.6 829.2,146.9 853.8,146.9 853.8,157.2 814.7,157.2 		"/>
		<path id="XMLID_49_" class="st2" d="M433.2,155.6c-9.2,2.3-16,2.5-21,2.5c-14.4,0-31.1-7.3-31.1-27.8c0-20.4,14.4-28.3,34.3-28.3
			c3.6,0,11.1,0.4,16.4,2.4l-1.2,11.8c-4.5-2.6-9.8-3.5-13.2-3.5c-11.7,0-21.4,4.9-21.4,17.6c0,10.6,7.5,17.1,18.1,17.1
			c1.9,0,3.8-0.3,5.1-0.9v-10.7h-8.5v-10.3h22.4V155.6z"/>
		<path id="XMLID_45_" class="st2" d="M509.6,146.9h4.3c5.3,0,10.8-0.8,10.8-6.3c0-5.9-5.7-6.5-10.6-6.5h-4.4V146.9z M509.6,124.4h4
			c4.7,0,9.6-1.2,9.6-5.8c0-5-4.7-5.4-9.5-5.4h-4.2V124.4z M495.2,103h24.9c10.1,0,17.6,4.4,17.6,13.7c0,6.8-3.5,10.7-9.5,12.7v0.1
			c7.2,1.5,10.9,5.4,10.9,12c0,13-11.4,15.7-21.1,15.7h-22.8V103z"/>
		<path id="XMLID_44_" class="st2" d="M445.7,143.9c3.7,2,8.9,3.6,14.8,3.6c4.6,0,8.9-0.9,8.9-5.3c0-10.2-25.5-3.8-25.5-23.6
			c0-13.1,12.7-16.7,23.5-16.7c5.2,0,10.3,0.8,13.9,2l-0.9,11.3c-3.7-1.7-7.9-2.5-12-2.5c-3.6,0-9.7,0.3-9.7,5.1
			c0,8.8,25.5,2.9,25.5,22.6c0,14.1-11.7,18-23.7,18c-5,0-11.3-0.8-16.1-2.3L445.7,143.9z"/>
		<path id="XMLID_41_" class="st2" d="M81.5,125.5h3.8c4.7,0,10.6-0.2,10.6-6.3c0-5.1-5.1-6-10.6-6h-3.8V125.5z M67.1,103h25.8
			c9.6,0,17.5,4.3,17.5,13.7c0,7.2-3.4,12-10.4,13.7v0.2c4.7,1.3,5,5.4,7.7,12l5.3,14.8H97.8l-3.1-9.8c-3-9.3-4.8-11.7-10.2-11.7h-3
			v21.4H67.1V103z"/>
		<polygon id="XMLID_40_" class="st2" points="122,103 160.2,103 160.2,113.2 136.4,113.2 136.4,124.4 158.9,124.4 158.9,134.6 
			136.4,134.6 136.4,146.9 161,146.9 161,157.2 122,157.2 		"/>
		<path id="XMLID_37_" class="st2" d="M187.4,146.5h5.6c10.8,0,16.9-5.6,16.9-16.4c0-10.8-6.3-16.4-16.9-16.4h-5.6V146.5z
			 M172.9,103h19.7c18.9,0,32.1,5.9,32.1,26.9c0,20.3-13.6,27.3-32.1,27.3h-19.7V103z"/>
		<path id="XMLID_34_" class="st2" d="M248.3,146.5h5.6c10.8,0,16.9-5.6,16.9-16.4c0-10.8-6.3-16.4-16.9-16.4h-5.6V146.5z
			 M233.8,103h19.7c18.9,0,32.1,5.9,32.1,26.9c0,20.3-13.6,27.3-32.1,27.3h-19.7V103z"/>
		<rect id="XMLID_33_" x="295.6" y="103" class="st2" width="14.4" height="54.2"/>
		<polygon id="XMLID_32_" class="st2" points="322.9,103 341.3,103 359.7,139.8 359.8,139.8 359.6,103 372.8,103 372.8,157.2 
			354.8,157.2 335.9,120.1 335.7,120.1 336.2,157.2 322.9,157.2 		"/>
		<path id="XMLID_29_" class="st2" d="M563,125.5h3.8c4.7,0,10.6-0.2,10.6-6.3c0-5.1-5.1-6-10.6-6H563V125.5z M548.5,103h25.8
			c9.6,0,17.5,4.3,17.5,13.7c0,7.2-3.4,12-10.4,13.7v0.2c4.7,1.3,5,5.4,7.7,12l5.3,14.8h-15.1l-3.1-9.8c-2.9-9.3-4.8-11.7-10.2-11.7
			h-3v21.4h-14.4V103z"/>
		<rect id="XMLID_28_" x="604.5" y="103" class="st2" width="14.5" height="54.2"/>
		<path id="XMLID_27_" class="st2" d="M681.4,155.6c-9.2,2.3-16,2.5-21,2.5c-14.4,0-31.1-7.3-31.1-27.8c0-20.4,14.4-28.3,34.3-28.3
			c3.6,0,11.1,0.4,16.4,2.4l-1.2,11.8c-4.5-2.6-9.8-3.5-13.2-3.5c-11.7,0-21.4,4.9-21.4,17.6c0,10.6,7.5,17.1,18.1,17.1
			c1.9,0,3.8-0.3,5.1-0.9v-10.7h-8.5v-10.3h22.5V155.6z"/>
		<path id="XMLID_24_" class="st2" d="M717.7,114.1h-0.2l-7,21.2h13.6L717.7,114.1z M708.9,103h17.7l20.9,54.2h-15.8l-4-11.6h-20.4
			l-4.3,11.6h-14.7L708.9,103z"/>
		<path id="XMLID_21_" class="st2" d="M769.1,146.5h5.6c10.8,0,16.9-5.6,16.9-16.4c0-10.8-6.3-16.4-16.9-16.4h-5.6V146.5z
			 M754.7,103h19.7c18.9,0,32.1,5.9,32.1,26.9c0,20.3-13.6,27.3-32.1,27.3h-19.7V103z"/>
		<polygon id="XMLID_20_" class="st2" points="814.7,103 852.9,103 852.9,113.2 829.2,113.2 829.2,124.4 851.6,124.4 851.6,134.6 
			829.2,134.6 829.2,146.9 853.8,146.9 853.8,157.2 814.7,157.2 		"/>
		<path id="XMLID_19_" class="st2" d="M433.2,155.6c-9.2,2.3-16,2.5-21,2.5c-14.4,0-31.1-7.3-31.1-27.8c0-20.4,14.4-28.3,34.3-28.3
			c3.6,0,11.1,0.4,16.4,2.4l-1.2,11.8c-4.5-2.6-9.8-3.5-13.2-3.5c-11.7,0-21.4,4.9-21.4,17.6c0,10.6,7.5,17.1,18.1,17.1
			c1.9,0,3.8-0.3,5.1-0.9v-10.7h-8.5v-10.3h22.4V155.6z"/>
		<path id="XMLID_18_" class="st2" d="M445.7,143.9c3.7,2,8.9,3.6,14.8,3.6c4.6,0,8.9-0.9,8.9-5.3c0-10.2-25.5-3.8-25.5-23.6
			c0-13.1,12.7-16.7,23.5-16.7c5.2,0,10.3,0.8,13.9,2l-0.9,11.3c-3.7-1.7-7.9-2.5-12-2.5c-3.6,0-9.7,0.3-9.7,5.1
			c0,8.8,25.5,2.9,25.5,22.6c0,14.1-11.7,18-23.7,18c-5,0-11.3-0.8-16.1-2.3L445.7,143.9z"/>
		<path id="XMLID_14_" class="st2" d="M509.6,146.9h4.3c5.3,0,10.8-0.8,10.8-6.3c0-5.9-5.7-6.5-10.6-6.5h-4.4V146.9z M509.6,124.4h4
			c4.7,0,9.6-1.2,9.6-5.8c0-5-4.7-5.4-9.5-5.4h-4.2V124.4z M495.2,103h24.9c10.1,0,17.6,4.4,17.6,13.7c0,6.8-3.5,10.7-9.5,12.7v0.1
			c7.2,1.5,10.9,5.4,10.9,12c0,13-11.4,15.7-21.1,15.7h-22.8V103z"/>
		<path id="XMLID_13_" class="st2" d="M27.3,105.9H0c3.4,26.2,24.2,47,50.4,50.4v-27.3C39,126.3,30.1,117.3,27.3,105.9"/>
		<path id="XMLID_12_" class="st2" d="M58.5,14.5c-0.3,0.3-0.7,0.3-1,0l-6.6-6.6c-0.3-0.3-0.3-0.7,0-1l6.6-6.6c0.3-0.3,0.7-0.3,1,0
			l6.6,6.6c0.3,0.3,0.3,0.7,0,1L58.5,14.5z"/>
		<path id="XMLID_11_" class="st2" d="M82.9,43.4c-0.4,0.2-0.8,0.2-1.3,0.2h0c-1.4,0.1-2.6-0.6-3.3-1.1c-0.8-0.4-1.8-0.9-2.8-0.9
			c-1,0-2.2,0.5-2.8,0.9c-1.3,0.8-1.7,1.1-2.8,1.1c-1.4,0.1-2.5-0.6-3.3-1.1c-0.8-0.4-1.8-0.9-2.8-0.9c-1,0-2.2,0.5-2.8,0.9
			c-1.3,0.8-1.7,1.1-2.8,1.1c-1.1,0-1.6-0.3-2.8-1.1c-0.6-0.4-1.8-0.9-2.8-0.9c-1,0-2,0.4-2.8,0.9c-0.8,0.4-2,1.2-3.3,1.1
			c-1.1,0-1.6-0.3-2.8-1.1c-0.6-0.4-1.8-0.9-2.8-0.9c-1,0-2,0.4-2.8,0.9c-0.8,0.4-2,1.2-3.3,1.1h0c-0.6,0-0.9-0.1-1.3-0.2L23.6,30
			c-2.4-3.5-1.6-8.3,1.9-10.7c3.5-2.4,8.3-1.6,10.7,1.9L44,32.3c2.1-0.5,4.2-0.9,6.3-1.2v-6c0-4.2,3.4-7.7,7.7-7.7s7.7,3.4,7.7,7.7
			v6c2.1,0.3,4.2,0.7,6.3,1.2l7.8-11.1c2.4-3.5,7.2-4.3,10.7-1.9c3.5,2.4,4.3,7.2,1.9,10.7L82.9,43.4z"/>
		<path id="XMLID_10_" class="st2" d="M46.3,48.7c-1.1,0-1.5-0.3-2.8-1c-0.6-0.4-1.8-0.9-2.8-0.9c-1,0-2,0.4-2.8,0.9
			c-0.8,0.4-2,1.1-3.3,1h0c-1.1,0-1.5-0.3-2.8-1c-0.4-0.2-1-0.5-1.6-0.7C14,55.7,2.5,71.8,0,90.8h27.3C30.1,79.4,39,70.5,50.4,67.7
			V47.2c-0.3,0.1-0.6,0.3-0.9,0.4C48.8,48.1,47.6,48.8,46.3,48.7"/>
		<path id="XMLID_9_" class="st2" d="M85.8,46.9c-0.7,0.2-1.3,0.5-1.7,0.7c-1.3,0.8-1.7,1-2.8,1h0c-1.3,0.1-2.5-0.6-3.3-1
			c-0.8-0.4-1.8-0.9-2.8-0.9c-1,0-2.2,0.5-2.8,0.9c-1.3,0.8-1.7,1-2.8,1c-1.3,0.1-2.5-0.6-3.3-1c-0.2-0.1-0.5-0.3-0.8-0.4v20.4
			c11.4,2.8,20.3,11.7,23.1,23.1H116C113.5,71.8,102,55.7,85.8,46.9"/>
	</g>
</g>
</svg>
